<?xml version="1.0" encoding="iso-8859-1"?>
<!-- Uploaded to: SVG Repo, www.svgrepo.com, Generator: SVG Repo Mixer Tools -->
<svg version="1.1" id="Layer_1" xmlns="http://www.w3.org/2000/svg" xmlns:xlink="http://www.w3.org/1999/xlink" 
	 viewBox="0 0 392.598 392.598" xml:space="preserve">
<rect x="44.089" y="43.184" style="fill:#56ACE0;" width="304.485" height="327.564"/>
<polygon style="fill:#FFC10D;" points="138.02,21.786 123.022,85.592 269.64,85.592 254.642,21.786 "/>
<path style="fill:#194F82;" d="M359.434,21.333H277.01l-3.038-12.994C272.743,3.491,268.412,0,263.305,0H129.357
	c-5.042,0-9.438,3.491-10.602,8.404l-3.038,12.994H33.228c-6.012,0-10.925,4.848-10.925,10.925v349.35
	c0,6.012,4.848,10.925,10.925,10.925h326.141c6.012,0,10.925-4.848,10.925-10.925V32.323
	C370.359,26.246,365.511,21.333,359.434,21.333z M138.02,21.786h116.687l14.998,63.741H123.022L138.02,21.786z M283.41,107.378
	h0.065c7.046,0.065,12.929-6.594,10.214-14.804l-1.293-5.689h12.606v240.291H87.854V86.82h12.606l-1.681,7.176
	c-1.487,6.4,3.038,13.188,10.602,13.382H283.41z M348.573,370.747H44.089V43.184h66.457l-5.107,21.786H76.864
	c-6.012,0-10.925,4.848-10.925,10.925v262.141c0,6.012,4.848,10.925,10.925,10.925h238.933c6.012,0,10.925-4.848,10.925-10.925
	V75.895c0-6.012-4.848-10.925-10.925-10.925h-28.574l-5.107-21.786h66.457V370.747z"/>
<path style="fill:#FFFFFF;" d="M283.474,107.378h-0.065H109.252c-7.628-0.259-12.024-7.046-10.602-13.382l1.681-7.176H87.725
	v240.291h217.147V86.82h-12.606l1.293,5.689C296.404,100.848,290.521,107.507,283.474,107.378z"/>
<g>
	<path style="fill:#194F82;" d="M117.074,154.57h158.578c6.012,0,10.925-4.848,10.925-10.925c0-6.012-4.849-10.925-10.925-10.925
		H117.074c-6.012,0-10.925,4.848-10.925,10.925C106.149,149.657,110.998,154.57,117.074,154.57z"/>
	<path style="fill:#194F82;" d="M275.588,181.915H117.074c-6.012,0-10.925,4.848-10.925,10.925c0,6.012,4.848,10.925,10.925,10.925
		h158.578c6.012,0,10.925-4.848,10.925-10.925S281.664,181.915,275.588,181.915z"/>
	<path style="fill:#194F82;" d="M275.588,230.982H117.074c-6.012,0-10.925,4.848-10.925,10.925c0,6.012,4.848,10.925,10.925,10.925
		h158.578c6.012,0,10.925-4.848,10.925-10.925C286.513,235.895,281.664,230.982,275.588,230.982z"/>
	<path style="fill:#194F82;" d="M205.963,280.113h-88.889c-6.012,0-10.925,4.848-10.925,10.925c0,6.012,4.848,10.925,10.925,10.925
		h88.954c6.012,0,10.925-4.848,10.925-10.925C216.889,284.962,212.04,280.113,205.963,280.113z"/>
</g>
</svg>